<mxfile host="Electron" modified="2024-08-14T09:41:42.862Z" agent="Mozilla/5.0 (Macintosh; Intel Mac OS X 10_15_7) AppleWebKit/537.36 (KHTML, like Gecko) draw.io/24.4.0 Chrome/120.0.6099.109 Electron/28.1.0 Safari/537.36" etag="o2dkJqCKZaVxmAYIr8S6" version="24.4.0" type="device">
  <diagram name="Page-1" id="bZBsJEEv_NVjQFhtzkVJ">
    <mxGraphModel dx="1806" dy="442" grid="1" gridSize="10" guides="1" tooltips="1" connect="1" arrows="1" fold="1" page="1" pageScale="1" pageWidth="850" pageHeight="1100" math="1" shadow="0">
      <root>
        <mxCell id="0" />
        <mxCell id="1" parent="0" />
        <mxCell id="TNHeq-oCC6hLfHn_DJO0-72" value="" style="rounded=1;whiteSpace=wrap;html=1;arcSize=6;dashed=1;fillColor=#f5f5f5;fontColor=#333333;strokeColor=#666666;strokeWidth=2;movable=1;resizable=1;rotatable=1;deletable=1;editable=1;locked=0;connectable=1;" parent="1" vertex="1">
          <mxGeometry x="-563" y="201" width="314" height="220" as="geometry" />
        </mxCell>
        <mxCell id="TNHeq-oCC6hLfHn_DJO0-1" value="" style="rounded=0;whiteSpace=wrap;html=1;" parent="1" vertex="1">
          <mxGeometry x="-297" y="227" width="30" height="40" as="geometry" />
        </mxCell>
        <mxCell id="TNHeq-oCC6hLfHn_DJO0-3" value="&lt;span style=&quot;color: rgba(0, 0, 0, 0); font-family: monospace; font-size: 0px; text-align: start; text-wrap: nowrap;&quot;&gt;%3CmxGraphModel%3E%3Croot%3E%3CmxCell%20id%3D%220%22%2F%3E%3CmxCell%20id%3D%221%22%20parent%3D%220%22%2F%3E%3CmxCell%20id%3D%222%22%20value%3D%22%24%24k%2C%201%24%24%22%20style%3D%22text%3Bhtml%3D1%3Balign%3Dcenter%3BverticalAlign%3Dmiddle%3BwhiteSpace%3Dwrap%3Brounded%3D0%3B%22%20vertex%3D%221%22%20parent%3D%221%22%3E%3CmxGeometry%20x%3D%22-357.5%22%20y%3D%22675%22%20width%3D%2225%22%20height%3D%2230%22%20as%3D%22geometry%22%2F%3E%3C%2FmxCell%3E%3C%2Froot%3E%3C%2FmxGraphModel%3E&lt;/span&gt;" style="rounded=0;whiteSpace=wrap;html=1;" parent="1" vertex="1">
          <mxGeometry x="-297" y="267" width="30" height="40" as="geometry" />
        </mxCell>
        <mxCell id="TNHeq-oCC6hLfHn_DJO0-4" value="" style="rounded=0;whiteSpace=wrap;html=1;" parent="1" vertex="1">
          <mxGeometry x="-297" y="337" width="30" height="40" as="geometry" />
        </mxCell>
        <UserObject label="$$\dots$$" placeholders="1" name="Variable" id="TNHeq-oCC6hLfHn_DJO0-7">
          <mxCell style="text;html=1;strokeColor=none;fillColor=none;align=center;verticalAlign=middle;whiteSpace=wrap;overflow=hidden;rotation=90;fontSize=13;strokeWidth=1;fontStyle=0" parent="1" vertex="1">
            <mxGeometry x="-283.5" y="305.5" width="27" height="31" as="geometry" />
          </mxCell>
        </UserObject>
        <mxCell id="TNHeq-oCC6hLfHn_DJO0-8" value="$$k, 1$$" style="text;html=1;align=center;verticalAlign=middle;whiteSpace=wrap;rounded=0;fontColor=#FF8000;" parent="1" vertex="1">
          <mxGeometry x="-294.5" y="342" width="25" height="30" as="geometry" />
        </mxCell>
        <mxCell id="TNHeq-oCC6hLfHn_DJO0-9" value="$$2, 1$$" style="text;html=1;align=center;verticalAlign=middle;whiteSpace=wrap;rounded=0;fontColor=#FF8000;" parent="1" vertex="1">
          <mxGeometry x="-294" y="272" width="25" height="30" as="geometry" />
        </mxCell>
        <mxCell id="TNHeq-oCC6hLfHn_DJO0-10" value="$$1, 1$$" style="text;html=1;align=center;verticalAlign=middle;whiteSpace=wrap;rounded=0;fontColor=#FF8000;" parent="1" vertex="1">
          <mxGeometry x="-294.5" y="232" width="25" height="30" as="geometry" />
        </mxCell>
        <mxCell id="TNHeq-oCC6hLfHn_DJO0-11" value="" style="rounded=0;whiteSpace=wrap;html=1;" parent="1" vertex="1">
          <mxGeometry x="-535" y="227" width="30" height="40" as="geometry" />
        </mxCell>
        <mxCell id="TNHeq-oCC6hLfHn_DJO0-12" value="&lt;span style=&quot;color: rgba(0, 0, 0, 0); font-family: monospace; font-size: 0px; text-align: start; text-wrap: nowrap;&quot;&gt;%3CmxGraphModel%3E%3Croot%3E%3CmxCell%20id%3D%220%22%2F%3E%3CmxCell%20id%3D%221%22%20parent%3D%220%22%2F%3E%3CmxCell%20id%3D%222%22%20value%3D%22%24%24k%2C%201%24%24%22%20style%3D%22text%3Bhtml%3D1%3Balign%3Dcenter%3BverticalAlign%3Dmiddle%3BwhiteSpace%3Dwrap%3Brounded%3D0%3B%22%20vertex%3D%221%22%20parent%3D%221%22%3E%3CmxGeometry%20x%3D%22-357.5%22%20y%3D%22675%22%20width%3D%2225%22%20height%3D%2230%22%20as%3D%22geometry%22%2F%3E%3C%2FmxCell%3E%3C%2Froot%3E%3C%2FmxGraphModel%3E&lt;/span&gt;" style="rounded=0;whiteSpace=wrap;html=1;" parent="1" vertex="1">
          <mxGeometry x="-535" y="267" width="30" height="40" as="geometry" />
        </mxCell>
        <mxCell id="TNHeq-oCC6hLfHn_DJO0-13" value="" style="rounded=0;whiteSpace=wrap;html=1;" parent="1" vertex="1">
          <mxGeometry x="-535" y="337" width="30" height="40" as="geometry" />
        </mxCell>
        <mxCell id="TNHeq-oCC6hLfHn_DJO0-15" value="$$k, 1$$" style="text;html=1;align=center;verticalAlign=middle;whiteSpace=wrap;rounded=0;fontColor=#007FFF;" parent="1" vertex="1">
          <mxGeometry x="-532.5" y="342" width="25" height="30" as="geometry" />
        </mxCell>
        <mxCell id="TNHeq-oCC6hLfHn_DJO0-16" value="$$2, 1$$" style="text;html=1;align=center;verticalAlign=middle;whiteSpace=wrap;rounded=0;fontColor=#007FFF;" parent="1" vertex="1">
          <mxGeometry x="-532" y="272" width="25" height="30" as="geometry" />
        </mxCell>
        <mxCell id="TNHeq-oCC6hLfHn_DJO0-17" value="$$1, 1$$" style="text;html=1;align=center;verticalAlign=middle;whiteSpace=wrap;rounded=0;fontColor=#007FFF;" parent="1" vertex="1">
          <mxGeometry x="-532.5" y="232" width="25" height="30" as="geometry" />
        </mxCell>
        <mxCell id="TNHeq-oCC6hLfHn_DJO0-18" value="" style="rounded=0;whiteSpace=wrap;html=1;" parent="1" vertex="1">
          <mxGeometry x="-505.5" y="227" width="30" height="40" as="geometry" />
        </mxCell>
        <mxCell id="TNHeq-oCC6hLfHn_DJO0-19" value="&lt;span style=&quot;color: rgba(0, 0, 0, 0); font-family: monospace; font-size: 0px; text-align: start; text-wrap: nowrap;&quot;&gt;%3CmxGraphModel%3E%3Croot%3E%3CmxCell%20id%3D%220%22%2F%3E%3CmxCell%20id%3D%221%22%20parent%3D%220%22%2F%3E%3CmxCell%20id%3D%222%22%20value%3D%22%24%24k%2C%201%24%24%22%20style%3D%22text%3Bhtml%3D1%3Balign%3Dcenter%3BverticalAlign%3Dmiddle%3BwhiteSpace%3Dwrap%3Brounded%3D0%3B%22%20vertex%3D%221%22%20parent%3D%221%22%3E%3CmxGeometry%20x%3D%22-357.5%22%20y%3D%22675%22%20width%3D%2225%22%20height%3D%2230%22%20as%3D%22geometry%22%2F%3E%3C%2FmxCell%3E%3C%2Froot%3E%3C%2FmxGraphModel%3E&lt;/span&gt;" style="rounded=0;whiteSpace=wrap;html=1;" parent="1" vertex="1">
          <mxGeometry x="-505.5" y="267" width="30" height="40" as="geometry" />
        </mxCell>
        <mxCell id="TNHeq-oCC6hLfHn_DJO0-20" value="" style="rounded=0;whiteSpace=wrap;html=1;" parent="1" vertex="1">
          <mxGeometry x="-505.5" y="337" width="30" height="40" as="geometry" />
        </mxCell>
        <UserObject label="$$\dots$$" placeholders="1" name="Variable" id="TNHeq-oCC6hLfHn_DJO0-21">
          <mxCell style="text;html=1;strokeColor=none;fillColor=none;align=center;verticalAlign=middle;whiteSpace=wrap;overflow=hidden;rotation=90;fontSize=13;strokeWidth=1;fontStyle=0" parent="1" vertex="1">
            <mxGeometry x="-518.5" y="297" width="60" height="50" as="geometry" />
          </mxCell>
        </UserObject>
        <mxCell id="TNHeq-oCC6hLfHn_DJO0-22" value="$$k, 2$$" style="text;html=1;align=center;verticalAlign=middle;whiteSpace=wrap;rounded=0;fontColor=#007FFF;" parent="1" vertex="1">
          <mxGeometry x="-503" y="342" width="25" height="30" as="geometry" />
        </mxCell>
        <mxCell id="TNHeq-oCC6hLfHn_DJO0-23" value="$$2, 2$$" style="text;html=1;align=center;verticalAlign=middle;whiteSpace=wrap;rounded=0;fontColor=#007FFF;" parent="1" vertex="1">
          <mxGeometry x="-502.5" y="272" width="25" height="30" as="geometry" />
        </mxCell>
        <mxCell id="TNHeq-oCC6hLfHn_DJO0-24" value="$$1, 2$$" style="text;html=1;align=center;verticalAlign=middle;whiteSpace=wrap;rounded=0;fontColor=#007FFF;" parent="1" vertex="1">
          <mxGeometry x="-503" y="232" width="25" height="30" as="geometry" />
        </mxCell>
        <mxCell id="TNHeq-oCC6hLfHn_DJO0-25" value="" style="rounded=0;whiteSpace=wrap;html=1;" parent="1" vertex="1">
          <mxGeometry x="-446" y="227" width="30" height="40" as="geometry" />
        </mxCell>
        <mxCell id="TNHeq-oCC6hLfHn_DJO0-26" value="&lt;span style=&quot;color: rgba(0, 0, 0, 0); font-family: monospace; font-size: 0px; text-align: start; text-wrap: nowrap;&quot;&gt;%3CmxGraphModel%3E%3Croot%3E%3CmxCell%20id%3D%220%22%2F%3E%3CmxCell%20id%3D%221%22%20parent%3D%220%22%2F%3E%3CmxCell%20id%3D%222%22%20value%3D%22%24%24k%2C%201%24%24%22%20style%3D%22text%3Bhtml%3D1%3Balign%3Dcenter%3BverticalAlign%3Dmiddle%3BwhiteSpace%3Dwrap%3Brounded%3D0%3B%22%20vertex%3D%221%22%20parent%3D%221%22%3E%3CmxGeometry%20x%3D%22-357.5%22%20y%3D%22675%22%20width%3D%2225%22%20height%3D%2230%22%20as%3D%22geometry%22%2F%3E%3C%2FmxCell%3E%3C%2Froot%3E%3C%2FmxGraphModel%3E&lt;/span&gt;" style="rounded=0;whiteSpace=wrap;html=1;" parent="1" vertex="1">
          <mxGeometry x="-446" y="267" width="30" height="40" as="geometry" />
        </mxCell>
        <mxCell id="TNHeq-oCC6hLfHn_DJO0-27" value="" style="rounded=0;whiteSpace=wrap;html=1;" parent="1" vertex="1">
          <mxGeometry x="-446" y="337" width="30" height="40" as="geometry" />
        </mxCell>
        <mxCell id="TNHeq-oCC6hLfHn_DJO0-29" value="$$k, n$$" style="text;html=1;align=center;verticalAlign=middle;whiteSpace=wrap;rounded=0;fontColor=#007FFF;" parent="1" vertex="1">
          <mxGeometry x="-443.5" y="342" width="25" height="30" as="geometry" />
        </mxCell>
        <mxCell id="TNHeq-oCC6hLfHn_DJO0-30" value="$$2, n$$" style="text;html=1;align=center;verticalAlign=middle;whiteSpace=wrap;rounded=0;fontColor=#007FFF;" parent="1" vertex="1">
          <mxGeometry x="-443" y="272" width="25" height="30" as="geometry" />
        </mxCell>
        <mxCell id="TNHeq-oCC6hLfHn_DJO0-31" value="$$1, n$$" style="text;html=1;align=center;verticalAlign=middle;whiteSpace=wrap;rounded=0;fontColor=#007FFF;" parent="1" vertex="1">
          <mxGeometry x="-443.5" y="232" width="25" height="30" as="geometry" />
        </mxCell>
        <UserObject label="$$\dots$$" placeholders="1" name="Variable" id="TNHeq-oCC6hLfHn_DJO0-32">
          <mxCell style="text;html=1;strokeColor=none;fillColor=none;align=center;verticalAlign=middle;whiteSpace=wrap;overflow=hidden;rotation=0;fontSize=13;strokeWidth=1;fontStyle=0" parent="1" vertex="1">
            <mxGeometry x="-496" y="241" width="64.5" height="48" as="geometry" />
          </mxCell>
        </UserObject>
        <UserObject label="$$\dots$$" placeholders="1" name="Variable" id="TNHeq-oCC6hLfHn_DJO0-33">
          <mxCell style="text;html=1;strokeColor=none;fillColor=none;align=center;verticalAlign=middle;whiteSpace=wrap;overflow=hidden;rotation=30;fontSize=13;strokeWidth=1;fontStyle=0" parent="1" vertex="1">
            <mxGeometry x="-489.5" y="294" width="60" height="50" as="geometry" />
          </mxCell>
        </UserObject>
        <UserObject label="$$\dots$$" placeholders="1" name="Variable" id="TNHeq-oCC6hLfHn_DJO0-34">
          <mxCell style="text;html=1;strokeColor=none;fillColor=none;align=center;verticalAlign=middle;whiteSpace=wrap;overflow=hidden;rotation=0;fontSize=13;strokeWidth=1;fontStyle=0" parent="1" vertex="1">
            <mxGeometry x="-491.5" y="327" width="60" height="50" as="geometry" />
          </mxCell>
        </UserObject>
        <mxCell id="TNHeq-oCC6hLfHn_DJO0-36" value="" style="rounded=0;whiteSpace=wrap;html=1;" parent="1" vertex="1">
          <mxGeometry x="-416" y="227" width="30" height="40" as="geometry" />
        </mxCell>
        <mxCell id="TNHeq-oCC6hLfHn_DJO0-37" value="&lt;span style=&quot;color: rgba(0, 0, 0, 0); font-family: monospace; font-size: 0px; text-align: start; text-wrap: nowrap;&quot;&gt;%3CmxGraphModel%3E%3Croot%3E%3CmxCell%20id%3D%220%22%2F%3E%3CmxCell%20id%3D%221%22%20parent%3D%220%22%2F%3E%3CmxCell%20id%3D%222%22%20value%3D%22%24%24k%2C%201%24%24%22%20style%3D%22text%3Bhtml%3D1%3Balign%3Dcenter%3BverticalAlign%3Dmiddle%3BwhiteSpace%3Dwrap%3Brounded%3D0%3B%22%20vertex%3D%221%22%20parent%3D%221%22%3E%3CmxGeometry%20x%3D%22-357.5%22%20y%3D%22675%22%20width%3D%2225%22%20height%3D%2230%22%20as%3D%22geometry%22%2F%3E%3C%2FmxCell%3E%3C%2Froot%3E%3C%2FmxGraphModel%3E&lt;/span&gt;" style="rounded=0;whiteSpace=wrap;html=1;" parent="1" vertex="1">
          <mxGeometry x="-416" y="267" width="30" height="40" as="geometry" />
        </mxCell>
        <mxCell id="TNHeq-oCC6hLfHn_DJO0-38" value="" style="rounded=0;whiteSpace=wrap;html=1;" parent="1" vertex="1">
          <mxGeometry x="-416" y="337" width="30" height="40" as="geometry" />
        </mxCell>
        <mxCell id="TNHeq-oCC6hLfHn_DJO0-39" value="$$k, 1$$" style="text;html=1;align=center;verticalAlign=middle;whiteSpace=wrap;rounded=0;fontColor=#4D9900;" parent="1" vertex="1">
          <mxGeometry x="-413.5" y="342" width="25" height="30" as="geometry" />
        </mxCell>
        <mxCell id="TNHeq-oCC6hLfHn_DJO0-40" value="$$2, 1$$" style="text;html=1;align=center;verticalAlign=middle;whiteSpace=wrap;rounded=0;fontColor=#4D9900;" parent="1" vertex="1">
          <mxGeometry x="-413" y="272" width="25" height="30" as="geometry" />
        </mxCell>
        <mxCell id="TNHeq-oCC6hLfHn_DJO0-41" value="$$1, 1$$" style="text;html=1;align=center;verticalAlign=middle;whiteSpace=wrap;rounded=0;fontColor=#4D9900;" parent="1" vertex="1">
          <mxGeometry x="-413.5" y="232" width="25" height="30" as="geometry" />
        </mxCell>
        <mxCell id="TNHeq-oCC6hLfHn_DJO0-42" value="" style="rounded=0;whiteSpace=wrap;html=1;" parent="1" vertex="1">
          <mxGeometry x="-386.5" y="227" width="30" height="40" as="geometry" />
        </mxCell>
        <mxCell id="TNHeq-oCC6hLfHn_DJO0-43" value="&lt;span style=&quot;color: rgba(0, 0, 0, 0); font-family: monospace; font-size: 0px; text-align: start; text-wrap: nowrap;&quot;&gt;%3CmxGraphModel%3E%3Croot%3E%3CmxCell%20id%3D%220%22%2F%3E%3CmxCell%20id%3D%221%22%20parent%3D%220%22%2F%3E%3CmxCell%20id%3D%222%22%20value%3D%22%24%24k%2C%201%24%24%22%20style%3D%22text%3Bhtml%3D1%3Balign%3Dcenter%3BverticalAlign%3Dmiddle%3BwhiteSpace%3Dwrap%3Brounded%3D0%3B%22%20vertex%3D%221%22%20parent%3D%221%22%3E%3CmxGeometry%20x%3D%22-357.5%22%20y%3D%22675%22%20width%3D%2225%22%20height%3D%2230%22%20as%3D%22geometry%22%2F%3E%3C%2FmxCell%3E%3C%2Froot%3E%3C%2FmxGraphModel%3E&lt;/span&gt;" style="rounded=0;whiteSpace=wrap;html=1;" parent="1" vertex="1">
          <mxGeometry x="-386.5" y="267" width="30" height="40" as="geometry" />
        </mxCell>
        <mxCell id="TNHeq-oCC6hLfHn_DJO0-44" value="" style="rounded=0;whiteSpace=wrap;html=1;" parent="1" vertex="1">
          <mxGeometry x="-386.5" y="337" width="30" height="40" as="geometry" />
        </mxCell>
        <UserObject label="$$\dots$$" placeholders="1" name="Variable" id="TNHeq-oCC6hLfHn_DJO0-45">
          <mxCell style="text;html=1;strokeColor=none;fillColor=none;align=center;verticalAlign=middle;whiteSpace=wrap;overflow=hidden;rotation=90;fontSize=13;strokeWidth=1;fontStyle=0" parent="1" vertex="1">
            <mxGeometry x="-396.25" y="296.75" width="60" height="48.5" as="geometry" />
          </mxCell>
        </UserObject>
        <mxCell id="TNHeq-oCC6hLfHn_DJO0-46" value="$$k, 2$$" style="text;html=1;align=center;verticalAlign=middle;whiteSpace=wrap;rounded=0;fontColor=#4D9900;" parent="1" vertex="1">
          <mxGeometry x="-384" y="342" width="25" height="30" as="geometry" />
        </mxCell>
        <mxCell id="TNHeq-oCC6hLfHn_DJO0-47" value="$$2, 2$$" style="text;html=1;align=center;verticalAlign=middle;whiteSpace=wrap;rounded=0;fontColor=#4D9900;" parent="1" vertex="1">
          <mxGeometry x="-383.5" y="272" width="25" height="30" as="geometry" />
        </mxCell>
        <mxCell id="TNHeq-oCC6hLfHn_DJO0-48" value="$$1, 2$$" style="text;html=1;align=center;verticalAlign=middle;whiteSpace=wrap;rounded=0;fontColor=#4D9900;" parent="1" vertex="1">
          <mxGeometry x="-384" y="232" width="25" height="30" as="geometry" />
        </mxCell>
        <mxCell id="TNHeq-oCC6hLfHn_DJO0-49" value="" style="rounded=0;whiteSpace=wrap;html=1;" parent="1" vertex="1">
          <mxGeometry x="-327" y="227" width="30" height="40" as="geometry" />
        </mxCell>
        <mxCell id="TNHeq-oCC6hLfHn_DJO0-50" value="&lt;span style=&quot;color: rgba(0, 0, 0, 0); font-family: monospace; font-size: 0px; text-align: start; text-wrap: nowrap;&quot;&gt;%3CmxGraphModel%3E%3Croot%3E%3CmxCell%20id%3D%220%22%2F%3E%3CmxCell%20id%3D%221%22%20parent%3D%220%22%2F%3E%3CmxCell%20id%3D%222%22%20value%3D%22%24%24k%2C%201%24%24%22%20style%3D%22text%3Bhtml%3D1%3Balign%3Dcenter%3BverticalAlign%3Dmiddle%3BwhiteSpace%3Dwrap%3Brounded%3D0%3B%22%20vertex%3D%221%22%20parent%3D%221%22%3E%3CmxGeometry%20x%3D%22-357.5%22%20y%3D%22675%22%20width%3D%2225%22%20height%3D%2230%22%20as%3D%22geometry%22%2F%3E%3C%2FmxCell%3E%3C%2Froot%3E%3C%2FmxGraphModel%3E&lt;/span&gt;" style="rounded=0;whiteSpace=wrap;html=1;" parent="1" vertex="1">
          <mxGeometry x="-327" y="267" width="30" height="40" as="geometry" />
        </mxCell>
        <mxCell id="TNHeq-oCC6hLfHn_DJO0-51" value="" style="rounded=0;whiteSpace=wrap;html=1;" parent="1" vertex="1">
          <mxGeometry x="-327" y="337" width="30" height="40" as="geometry" />
        </mxCell>
        <mxCell id="TNHeq-oCC6hLfHn_DJO0-52" value="$$k, n$$" style="text;html=1;align=center;verticalAlign=middle;whiteSpace=wrap;rounded=0;fontColor=#4D9900;" parent="1" vertex="1">
          <mxGeometry x="-324.5" y="342" width="25" height="30" as="geometry" />
        </mxCell>
        <mxCell id="TNHeq-oCC6hLfHn_DJO0-53" value="$$2, n$$" style="text;html=1;align=center;verticalAlign=middle;whiteSpace=wrap;rounded=0;fontColor=#4D9900;" parent="1" vertex="1">
          <mxGeometry x="-324" y="272" width="25" height="30" as="geometry" />
        </mxCell>
        <mxCell id="TNHeq-oCC6hLfHn_DJO0-54" value="$$1, n$$" style="text;html=1;align=center;verticalAlign=middle;whiteSpace=wrap;rounded=0;fontColor=#4D9900;" parent="1" vertex="1">
          <mxGeometry x="-324.5" y="232" width="25" height="30" as="geometry" />
        </mxCell>
        <UserObject label="$$\dots$$" placeholders="1" name="Variable" id="TNHeq-oCC6hLfHn_DJO0-55">
          <mxCell style="text;html=1;strokeColor=none;fillColor=none;align=center;verticalAlign=middle;whiteSpace=wrap;overflow=hidden;rotation=0;fontSize=13;strokeWidth=1;fontStyle=0" parent="1" vertex="1">
            <mxGeometry x="-372.5" y="239" width="60" height="50" as="geometry" />
          </mxCell>
        </UserObject>
        <UserObject label="$$\dots$$" placeholders="1" name="Variable" id="TNHeq-oCC6hLfHn_DJO0-56">
          <mxCell style="text;html=1;strokeColor=none;fillColor=none;align=center;verticalAlign=middle;whiteSpace=wrap;overflow=hidden;rotation=30;fontSize=13;strokeWidth=1;fontStyle=0" parent="1" vertex="1">
            <mxGeometry x="-370" y="293" width="60" height="50" as="geometry" />
          </mxCell>
        </UserObject>
        <UserObject label="$$\dots$$" placeholders="1" name="Variable" id="TNHeq-oCC6hLfHn_DJO0-57">
          <mxCell style="text;html=1;strokeColor=none;fillColor=none;align=center;verticalAlign=middle;whiteSpace=wrap;overflow=hidden;rotation=0;fontSize=13;strokeWidth=1;fontStyle=0" parent="1" vertex="1">
            <mxGeometry x="-372.5" y="327" width="60" height="50" as="geometry" />
          </mxCell>
        </UserObject>
        <mxCell id="TNHeq-oCC6hLfHn_DJO0-59" value="" style="endArrow=none;html=1;rounded=0;strokeWidth=2;" parent="1" edge="1">
          <mxGeometry width="50" height="50" relative="1" as="geometry">
            <mxPoint x="-297.5" y="307" as="sourcePoint" />
            <mxPoint x="-297" y="227" as="targetPoint" />
          </mxGeometry>
        </mxCell>
        <mxCell id="TNHeq-oCC6hLfHn_DJO0-60" value="" style="endArrow=none;html=1;rounded=0;strokeWidth=2;" parent="1" edge="1">
          <mxGeometry width="50" height="50" relative="1" as="geometry">
            <mxPoint x="-416" y="307" as="sourcePoint" />
            <mxPoint x="-415.5" y="227" as="targetPoint" />
          </mxGeometry>
        </mxCell>
        <mxCell id="TNHeq-oCC6hLfHn_DJO0-62" value="" style="endArrow=none;html=1;rounded=0;entryX=0;entryY=0;entryDx=0;entryDy=0;exitX=0;exitY=1;exitDx=0;exitDy=0;strokeWidth=2;" parent="1" edge="1">
          <mxGeometry width="50" height="50" relative="1" as="geometry">
            <mxPoint x="-297" y="377" as="sourcePoint" />
            <mxPoint x="-297" y="337" as="targetPoint" />
          </mxGeometry>
        </mxCell>
        <mxCell id="TNHeq-oCC6hLfHn_DJO0-63" value="" style="endArrow=none;html=1;rounded=0;entryX=0;entryY=0;entryDx=0;entryDy=0;exitX=0;exitY=1;exitDx=0;exitDy=0;strokeWidth=2;" parent="1" edge="1">
          <mxGeometry width="50" height="50" relative="1" as="geometry">
            <mxPoint x="-416" y="377" as="sourcePoint" />
            <mxPoint x="-416" y="337" as="targetPoint" />
          </mxGeometry>
        </mxCell>
        <mxCell id="TNHeq-oCC6hLfHn_DJO0-70" value="Logical format of a word-aligned tableau" style="text;html=1;align=center;verticalAlign=middle;whiteSpace=wrap;rounded=0;fontSize=14;fontStyle=1" parent="1" vertex="1">
          <mxGeometry x="-549" y="175" width="290" height="24" as="geometry" />
        </mxCell>
        <mxCell id="TNHeq-oCC6hLfHn_DJO0-213" value="Physical storage in memory" style="text;html=1;align=center;verticalAlign=middle;whiteSpace=wrap;rounded=0;fontSize=14;rotation=0;fontStyle=1;fillColor=none;fillStyle=solid;" parent="1" vertex="1">
          <mxGeometry x="-516.5" y="433" width="215.25" height="20" as="geometry" />
        </mxCell>
        <mxCell id="TNHeq-oCC6hLfHn_DJO0-208" value="" style="rounded=1;whiteSpace=wrap;html=1;arcSize=6;dashed=1;fillColor=#f5f5f5;fontColor=#333333;strokeColor=#666666;strokeWidth=2;" parent="1" vertex="1">
          <mxGeometry x="-764" y="456" width="714" height="200" as="geometry" />
        </mxCell>
        <mxCell id="TNHeq-oCC6hLfHn_DJO0-203" value="(d) Column-major with word-level interleaving" style="text;html=1;align=center;verticalAlign=middle;whiteSpace=wrap;rounded=0;container=0;fontSize=13;" parent="1" vertex="1">
          <mxGeometry x="-382.25" y="620.74" width="276" height="30" as="geometry" />
        </mxCell>
        <mxCell id="TNHeq-oCC6hLfHn_DJO0-182" value="" style="rounded=0;whiteSpace=wrap;html=1;rotation=90;container=0;" parent="1" vertex="1">
          <mxGeometry x="-376.5" y="585.25" width="30" height="40" as="geometry" />
        </mxCell>
        <mxCell id="TNHeq-oCC6hLfHn_DJO0-183" value="$$1, 1$$" style="text;html=1;align=center;verticalAlign=middle;whiteSpace=wrap;rounded=0;fontColor=#007FFF;container=0;" parent="1" vertex="1">
          <mxGeometry x="-374" y="590.25" width="25" height="30" as="geometry" />
        </mxCell>
        <mxCell id="TNHeq-oCC6hLfHn_DJO0-185" value="" style="rounded=0;whiteSpace=wrap;html=1;rotation=90;container=0;" parent="1" vertex="1">
          <mxGeometry x="-299.5" y="585.25" width="30" height="40" as="geometry" />
        </mxCell>
        <mxCell id="TNHeq-oCC6hLfHn_DJO0-186" value="$$2, 1$$" style="text;html=1;align=center;verticalAlign=middle;whiteSpace=wrap;rounded=0;fontColor=#007FFF;container=0;" parent="1" vertex="1">
          <mxGeometry x="-297" y="592.25" width="27.5" height="26" as="geometry" />
        </mxCell>
        <mxCell id="TNHeq-oCC6hLfHn_DJO0-187" value="" style="rounded=0;whiteSpace=wrap;html=1;rotation=90;container=0;" parent="1" vertex="1">
          <mxGeometry x="-193" y="585.25" width="30" height="40" as="geometry" />
        </mxCell>
        <mxCell id="TNHeq-oCC6hLfHn_DJO0-188" value="$$k, 1$$" style="text;html=1;align=center;verticalAlign=middle;whiteSpace=wrap;rounded=0;fontColor=#007FFF;container=0;" parent="1" vertex="1">
          <mxGeometry x="-190.5" y="591.25" width="25" height="29" as="geometry" />
        </mxCell>
        <mxCell id="TNHeq-oCC6hLfHn_DJO0-190" value="" style="rounded=0;whiteSpace=wrap;html=1;rotation=90;container=0;" parent="1" vertex="1">
          <mxGeometry x="-336.5" y="585.25" width="30" height="40" as="geometry" />
        </mxCell>
        <mxCell id="TNHeq-oCC6hLfHn_DJO0-191" value="$$1, 1$$" style="text;html=1;align=center;verticalAlign=middle;whiteSpace=wrap;rounded=0;fontColor=#4D9900;container=0;" parent="1" vertex="1">
          <mxGeometry x="-334" y="590.25" width="25" height="30" as="geometry" />
        </mxCell>
        <mxCell id="TNHeq-oCC6hLfHn_DJO0-192" value="" style="rounded=0;whiteSpace=wrap;html=1;rotation=90;container=0;" parent="1" vertex="1">
          <mxGeometry x="-260" y="585.25" width="30" height="40" as="geometry" />
        </mxCell>
        <mxCell id="TNHeq-oCC6hLfHn_DJO0-193" value="$$2, 1$$" style="text;html=1;align=center;verticalAlign=middle;whiteSpace=wrap;rounded=0;fontColor=#4D9900;container=0;" parent="1" vertex="1">
          <mxGeometry x="-259.5" y="592.25" width="27.5" height="26" as="geometry" />
        </mxCell>
        <mxCell id="TNHeq-oCC6hLfHn_DJO0-194" value="" style="rounded=0;whiteSpace=wrap;html=1;rotation=90;container=0;" parent="1" vertex="1">
          <mxGeometry x="-153.5" y="585.25" width="30" height="40" as="geometry" />
        </mxCell>
        <mxCell id="TNHeq-oCC6hLfHn_DJO0-195" value="$$k, 1$$" style="text;html=1;align=center;verticalAlign=middle;whiteSpace=wrap;rounded=0;fontColor=#4D9900;container=0;" parent="1" vertex="1">
          <mxGeometry x="-151" y="591.25" width="25" height="29" as="geometry" />
        </mxCell>
        <UserObject label="$$\dots$$" placeholders="1" name="Variable" id="TNHeq-oCC6hLfHn_DJO0-196">
          <mxCell style="text;html=1;strokeColor=none;fillColor=none;align=center;verticalAlign=middle;whiteSpace=wrap;overflow=hidden;rotation=0;fontSize=13;strokeWidth=1;fontStyle=0;container=0;" parent="1" vertex="1">
            <mxGeometry x="-227.5" y="579.25" width="30" height="34" as="geometry" />
          </mxCell>
        </UserObject>
        <UserObject label="$$\dots$$" placeholders="1" name="Variable" id="TNHeq-oCC6hLfHn_DJO0-197">
          <mxCell style="text;html=1;strokeColor=none;fillColor=none;align=center;verticalAlign=middle;whiteSpace=wrap;overflow=hidden;rotation=0;fontSize=13;strokeWidth=1;fontStyle=0;container=0;" parent="1" vertex="1">
            <mxGeometry x="-123.5" y="578.25" width="33.5" height="38" as="geometry" />
          </mxCell>
        </UserObject>
        <mxCell id="TNHeq-oCC6hLfHn_DJO0-77" value="" style="rounded=0;whiteSpace=wrap;html=1;rotation=90;container=0;" parent="1" vertex="1">
          <mxGeometry x="-727.5" y="467" width="30" height="40" as="geometry" />
        </mxCell>
        <mxCell id="TNHeq-oCC6hLfHn_DJO0-78" value="$$1, 1$$" style="text;html=1;align=center;verticalAlign=middle;whiteSpace=wrap;rounded=0;fontColor=#007FFF;container=0;" parent="1" vertex="1">
          <mxGeometry x="-725" y="472" width="25" height="30" as="geometry" />
        </mxCell>
        <mxCell id="TNHeq-oCC6hLfHn_DJO0-81" value="" style="rounded=0;whiteSpace=wrap;html=1;rotation=90;container=0;" parent="1" vertex="1">
          <mxGeometry x="-687.5" y="467" width="30" height="40" as="geometry" />
        </mxCell>
        <mxCell id="TNHeq-oCC6hLfHn_DJO0-82" value="$$1, 2$$" style="text;html=1;align=center;verticalAlign=middle;whiteSpace=wrap;rounded=0;fontColor=#007FFF;container=0;" parent="1" vertex="1">
          <mxGeometry x="-687" y="474" width="27.5" height="26" as="geometry" />
        </mxCell>
        <UserObject label="$$\dots$$" placeholders="1" name="Variable" id="TNHeq-oCC6hLfHn_DJO0-83">
          <mxCell style="text;html=1;strokeColor=none;fillColor=none;align=center;verticalAlign=middle;whiteSpace=wrap;overflow=hidden;rotation=0;fontSize=13;strokeWidth=1;fontStyle=0;container=0;" parent="1" vertex="1">
            <mxGeometry x="-655.25" y="460" width="30" height="34" as="geometry" />
          </mxCell>
        </UserObject>
        <mxCell id="TNHeq-oCC6hLfHn_DJO0-84" value="" style="rounded=0;whiteSpace=wrap;html=1;rotation=90;container=0;" parent="1" vertex="1">
          <mxGeometry x="-623.5" y="467" width="30" height="40" as="geometry" />
        </mxCell>
        <mxCell id="TNHeq-oCC6hLfHn_DJO0-85" value="$$1, n$$" style="text;html=1;align=center;verticalAlign=middle;whiteSpace=wrap;rounded=0;fontColor=#007FFF;container=0;" parent="1" vertex="1">
          <mxGeometry x="-621" y="473" width="25" height="29" as="geometry" />
        </mxCell>
        <UserObject label="$$\dots$$" placeholders="1" name="Variable" id="TNHeq-oCC6hLfHn_DJO0-86">
          <mxCell style="text;html=1;strokeColor=none;fillColor=none;align=center;verticalAlign=middle;whiteSpace=wrap;overflow=hidden;rotation=0;fontSize=13;strokeWidth=1;fontStyle=0;container=0;" parent="1" vertex="1">
            <mxGeometry x="-511.5" y="460" width="31.5" height="36" as="geometry" />
          </mxCell>
        </UserObject>
        <mxCell id="TNHeq-oCC6hLfHn_DJO0-87" value="" style="rounded=0;whiteSpace=wrap;html=1;rotation=90;container=0;" parent="1" vertex="1">
          <mxGeometry x="-544" y="467" width="30" height="40" as="geometry" />
        </mxCell>
        <mxCell id="TNHeq-oCC6hLfHn_DJO0-88" value="$$2, 2$$" style="text;html=1;align=center;verticalAlign=middle;whiteSpace=wrap;rounded=0;fontColor=#007FFF;container=0;" parent="1" vertex="1">
          <mxGeometry x="-541.5" y="473" width="25" height="29" as="geometry" />
        </mxCell>
        <mxCell id="TNHeq-oCC6hLfHn_DJO0-89" value="" style="rounded=0;whiteSpace=wrap;html=1;rotation=90;container=0;" parent="1" vertex="1">
          <mxGeometry x="-727" y="507" width="30" height="40" as="geometry" />
        </mxCell>
        <mxCell id="TNHeq-oCC6hLfHn_DJO0-90" value="$$1, 1$$" style="text;html=1;align=center;verticalAlign=middle;whiteSpace=wrap;rounded=0;fontColor=#4D9900;container=0;" parent="1" vertex="1">
          <mxGeometry x="-724.5" y="512" width="25" height="30" as="geometry" />
        </mxCell>
        <mxCell id="TNHeq-oCC6hLfHn_DJO0-92" value="" style="rounded=0;whiteSpace=wrap;html=1;rotation=90;container=0;" parent="1" vertex="1">
          <mxGeometry x="-687" y="507" width="30" height="40" as="geometry" />
        </mxCell>
        <mxCell id="TNHeq-oCC6hLfHn_DJO0-93" value="$$1, 2$$" style="text;html=1;align=center;verticalAlign=middle;whiteSpace=wrap;rounded=0;fontColor=#4D9900;container=0;" parent="1" vertex="1">
          <mxGeometry x="-686.5" y="514" width="27.5" height="26" as="geometry" />
        </mxCell>
        <mxCell id="TNHeq-oCC6hLfHn_DJO0-94" value="" style="rounded=0;whiteSpace=wrap;html=1;rotation=90;container=0;" parent="1" vertex="1">
          <mxGeometry x="-623" y="507" width="30" height="40" as="geometry" />
        </mxCell>
        <mxCell id="TNHeq-oCC6hLfHn_DJO0-95" value="$$1, n$$" style="text;html=1;align=center;verticalAlign=middle;whiteSpace=wrap;rounded=0;fontColor=#4D9900;container=0;" parent="1" vertex="1">
          <mxGeometry x="-620.5" y="513" width="25" height="29" as="geometry" />
        </mxCell>
        <mxCell id="TNHeq-oCC6hLfHn_DJO0-96" value="" style="rounded=0;whiteSpace=wrap;html=1;rotation=90;container=0;" parent="1" vertex="1">
          <mxGeometry x="-544" y="507" width="30" height="40" as="geometry" />
        </mxCell>
        <mxCell id="TNHeq-oCC6hLfHn_DJO0-97" value="$$2, 2$$" style="text;html=1;align=center;verticalAlign=middle;whiteSpace=wrap;rounded=0;fontColor=#4D9900;container=0;" parent="1" vertex="1">
          <mxGeometry x="-541.5" y="513" width="25" height="29" as="geometry" />
        </mxCell>
        <UserObject label="$$\dots$$" placeholders="1" name="Variable" id="TNHeq-oCC6hLfHn_DJO0-118">
          <mxCell style="text;html=1;strokeColor=none;fillColor=none;align=center;verticalAlign=middle;whiteSpace=wrap;overflow=hidden;rotation=0;fontSize=13;strokeWidth=1;fontStyle=0;container=0;" parent="1" vertex="1">
            <mxGeometry x="-654.75" y="500" width="30" height="34" as="geometry" />
          </mxCell>
        </UserObject>
        <UserObject label="$$\dots$$" placeholders="1" name="Variable" id="TNHeq-oCC6hLfHn_DJO0-119">
          <mxCell style="text;html=1;strokeColor=none;fillColor=none;align=center;verticalAlign=middle;whiteSpace=wrap;overflow=hidden;rotation=0;fontSize=13;strokeWidth=1;fontStyle=0;container=0;" parent="1" vertex="1">
            <mxGeometry x="-461" y="501" width="64.5" height="48" as="geometry" />
          </mxCell>
        </UserObject>
        <mxCell id="TNHeq-oCC6hLfHn_DJO0-122" value="" style="rounded=0;whiteSpace=wrap;html=1;rotation=90;container=0;" parent="1" vertex="1">
          <mxGeometry x="-583.5" y="467" width="30" height="40" as="geometry" />
        </mxCell>
        <mxCell id="TNHeq-oCC6hLfHn_DJO0-123" value="$$2, 1$$" style="text;html=1;align=center;verticalAlign=middle;whiteSpace=wrap;rounded=0;fontColor=#007FFF;container=0;" parent="1" vertex="1">
          <mxGeometry x="-583" y="474" width="27.5" height="26" as="geometry" />
        </mxCell>
        <mxCell id="TNHeq-oCC6hLfHn_DJO0-126" value="" style="rounded=0;whiteSpace=wrap;html=1;rotation=90;container=0;" parent="1" vertex="1">
          <mxGeometry x="-583" y="507" width="30" height="40" as="geometry" />
        </mxCell>
        <mxCell id="TNHeq-oCC6hLfHn_DJO0-127" value="$$2, 1$$" style="text;html=1;align=center;verticalAlign=middle;whiteSpace=wrap;rounded=0;fontColor=#4D9900;container=0;" parent="1" vertex="1">
          <mxGeometry x="-582.5" y="514" width="27.5" height="26" as="geometry" />
        </mxCell>
        <mxCell id="TNHeq-oCC6hLfHn_DJO0-198" value="(a) Row-major" style="text;html=1;align=center;verticalAlign=middle;whiteSpace=wrap;rounded=0;container=0;fontSize=13;" parent="1" vertex="1">
          <mxGeometry x="-657" y="539.52" width="129.5" height="30" as="geometry" />
        </mxCell>
        <mxCell id="TNHeq-oCC6hLfHn_DJO0-202" value="(c) Column-major with column-level interleaving" style="text;html=1;align=center;verticalAlign=middle;whiteSpace=wrap;rounded=0;container=0;fontSize=13;" parent="1" vertex="1">
          <mxGeometry x="-727" y="619.25" width="276" height="30" as="geometry" />
        </mxCell>
        <mxCell id="TNHeq-oCC6hLfHn_DJO0-134" value="" style="rounded=0;whiteSpace=wrap;html=1;rotation=90;container=0;" parent="1" vertex="1">
          <mxGeometry x="-725.5" y="584.25" width="30" height="40" as="geometry" />
        </mxCell>
        <mxCell id="TNHeq-oCC6hLfHn_DJO0-135" value="$$1, 1$$" style="text;html=1;align=center;verticalAlign=middle;whiteSpace=wrap;rounded=0;fontColor=#007FFF;container=0;" parent="1" vertex="1">
          <mxGeometry x="-723" y="589.25" width="25" height="30" as="geometry" />
        </mxCell>
        <mxCell id="TNHeq-oCC6hLfHn_DJO0-137" value="" style="rounded=0;whiteSpace=wrap;html=1;rotation=90;container=0;" parent="1" vertex="1">
          <mxGeometry x="-685.5" y="584.25" width="30" height="40" as="geometry" />
        </mxCell>
        <mxCell id="TNHeq-oCC6hLfHn_DJO0-138" value="$$2, 1$$" style="text;html=1;align=center;verticalAlign=middle;whiteSpace=wrap;rounded=0;fontColor=#007FFF;container=0;" parent="1" vertex="1">
          <mxGeometry x="-685" y="591.25" width="27.5" height="26" as="geometry" />
        </mxCell>
        <mxCell id="TNHeq-oCC6hLfHn_DJO0-139" value="" style="rounded=0;whiteSpace=wrap;html=1;rotation=90;container=0;" parent="1" vertex="1">
          <mxGeometry x="-621.5" y="584.25" width="30" height="40" as="geometry" />
        </mxCell>
        <mxCell id="TNHeq-oCC6hLfHn_DJO0-140" value="$$k, 1$$" style="text;html=1;align=center;verticalAlign=middle;whiteSpace=wrap;rounded=0;fontColor=#007FFF;container=0;" parent="1" vertex="1">
          <mxGeometry x="-619" y="590.25" width="25" height="29" as="geometry" />
        </mxCell>
        <UserObject label="$$\dots$$" placeholders="1" name="Variable" id="TNHeq-oCC6hLfHn_DJO0-152">
          <mxCell style="text;html=1;strokeColor=none;fillColor=none;align=center;verticalAlign=middle;whiteSpace=wrap;overflow=hidden;rotation=0;fontSize=13;strokeWidth=1;fontStyle=0;container=0;" parent="1" vertex="1">
            <mxGeometry x="-653.25" y="579.25" width="30" height="34" as="geometry" />
          </mxCell>
        </UserObject>
        <mxCell id="TNHeq-oCC6hLfHn_DJO0-158" value="" style="rounded=0;whiteSpace=wrap;html=1;rotation=90;container=0;" parent="1" vertex="1">
          <mxGeometry x="-582" y="584.25" width="30" height="40" as="geometry" />
        </mxCell>
        <mxCell id="TNHeq-oCC6hLfHn_DJO0-159" value="$$1, 1$$" style="text;html=1;align=center;verticalAlign=middle;whiteSpace=wrap;rounded=0;fontColor=#4D9900;container=0;" parent="1" vertex="1">
          <mxGeometry x="-579.5" y="589.25" width="25" height="30" as="geometry" />
        </mxCell>
        <mxCell id="TNHeq-oCC6hLfHn_DJO0-161" value="" style="rounded=0;whiteSpace=wrap;html=1;rotation=90;container=0;" parent="1" vertex="1">
          <mxGeometry x="-542" y="584.25" width="30" height="40" as="geometry" />
        </mxCell>
        <mxCell id="TNHeq-oCC6hLfHn_DJO0-162" value="$$2, 1$$" style="text;html=1;align=center;verticalAlign=middle;whiteSpace=wrap;rounded=0;fontColor=#4D9900;container=0;" parent="1" vertex="1">
          <mxGeometry x="-541.5" y="591.25" width="27.5" height="26" as="geometry" />
        </mxCell>
        <mxCell id="TNHeq-oCC6hLfHn_DJO0-163" value="" style="rounded=0;whiteSpace=wrap;html=1;rotation=90;container=0;" parent="1" vertex="1">
          <mxGeometry x="-476" y="584.25" width="30" height="40" as="geometry" />
        </mxCell>
        <mxCell id="TNHeq-oCC6hLfHn_DJO0-164" value="$$k, 1$$" style="text;html=1;align=center;verticalAlign=middle;whiteSpace=wrap;rounded=0;fontColor=#4D9900;container=0;" parent="1" vertex="1">
          <mxGeometry x="-473.5" y="590.25" width="25" height="29" as="geometry" />
        </mxCell>
        <UserObject label="$$\dots$$" placeholders="1" name="Variable" id="TNHeq-oCC6hLfHn_DJO0-165">
          <mxCell style="text;html=1;strokeColor=none;fillColor=none;align=center;verticalAlign=middle;whiteSpace=wrap;overflow=hidden;rotation=0;fontSize=13;strokeWidth=1;fontStyle=0;container=0;" parent="1" vertex="1">
            <mxGeometry x="-509" y="578.25" width="30" height="34" as="geometry" />
          </mxCell>
        </UserObject>
        <UserObject label="$$\dots$$" placeholders="1" name="Variable" id="TNHeq-oCC6hLfHn_DJO0-179">
          <mxCell style="text;html=1;strokeColor=none;fillColor=none;align=center;verticalAlign=middle;whiteSpace=wrap;overflow=hidden;rotation=0;fontSize=13;strokeWidth=1;fontStyle=0;container=0;" parent="1" vertex="1">
            <mxGeometry x="-443.5" y="578.25" width="33.5" height="38" as="geometry" />
          </mxCell>
        </UserObject>
        <mxCell id="TNHeq-oCC6hLfHn_DJO0-98" value="" style="rounded=0;whiteSpace=wrap;html=1;rotation=90;container=0;" parent="1" vertex="1">
          <mxGeometry x="-377.5" y="468" width="30" height="40" as="geometry" />
        </mxCell>
        <mxCell id="TNHeq-oCC6hLfHn_DJO0-99" value="$$1, 1$$" style="text;html=1;align=center;verticalAlign=middle;whiteSpace=wrap;rounded=0;fontColor=#007FFF;container=0;" parent="1" vertex="1">
          <mxGeometry x="-375" y="473" width="25" height="30" as="geometry" />
        </mxCell>
        <mxCell id="TNHeq-oCC6hLfHn_DJO0-101" value="" style="rounded=0;whiteSpace=wrap;html=1;rotation=90;container=0;" parent="1" vertex="1">
          <mxGeometry x="-337.5" y="468" width="30" height="40" as="geometry" />
        </mxCell>
        <mxCell id="TNHeq-oCC6hLfHn_DJO0-102" value="$$2, 1$$" style="text;html=1;align=center;verticalAlign=middle;whiteSpace=wrap;rounded=0;fontColor=#007FFF;container=0;" parent="1" vertex="1">
          <mxGeometry x="-337" y="475" width="27.5" height="26" as="geometry" />
        </mxCell>
        <mxCell id="TNHeq-oCC6hLfHn_DJO0-103" value="" style="rounded=0;whiteSpace=wrap;html=1;rotation=90;container=0;" parent="1" vertex="1">
          <mxGeometry x="-272.5" y="468" width="30" height="40" as="geometry" />
        </mxCell>
        <mxCell id="TNHeq-oCC6hLfHn_DJO0-104" value="$$k, 1$$" style="text;html=1;align=center;verticalAlign=middle;whiteSpace=wrap;rounded=0;fontColor=#007FFF;container=0;" parent="1" vertex="1">
          <mxGeometry x="-270" y="474" width="25" height="29" as="geometry" />
        </mxCell>
        <mxCell id="TNHeq-oCC6hLfHn_DJO0-105" value="" style="rounded=0;whiteSpace=wrap;html=1;rotation=90;container=0;" parent="1" vertex="1">
          <mxGeometry x="-126" y="468" width="30" height="40" as="geometry" />
        </mxCell>
        <mxCell id="TNHeq-oCC6hLfHn_DJO0-106" value="$$k, 2$$" style="text;html=1;align=center;verticalAlign=middle;whiteSpace=wrap;rounded=0;fontColor=#007FFF;container=0;" parent="1" vertex="1">
          <mxGeometry x="-123.5" y="474" width="25" height="29" as="geometry" />
        </mxCell>
        <mxCell id="TNHeq-oCC6hLfHn_DJO0-107" value="" style="rounded=0;whiteSpace=wrap;html=1;rotation=90;container=0;" parent="1" vertex="1">
          <mxGeometry x="-377.5" y="508" width="30" height="40" as="geometry" />
        </mxCell>
        <mxCell id="TNHeq-oCC6hLfHn_DJO0-108" value="$$1, 1$$" style="text;html=1;align=center;verticalAlign=middle;whiteSpace=wrap;rounded=0;fontColor=#4D9900;container=0;" parent="1" vertex="1">
          <mxGeometry x="-375" y="513" width="25" height="30" as="geometry" />
        </mxCell>
        <mxCell id="TNHeq-oCC6hLfHn_DJO0-110" value="" style="rounded=0;whiteSpace=wrap;html=1;rotation=90;container=0;" parent="1" vertex="1">
          <mxGeometry x="-337.5" y="508" width="30" height="40" as="geometry" />
        </mxCell>
        <mxCell id="TNHeq-oCC6hLfHn_DJO0-111" value="$$2, 1$$" style="text;html=1;align=center;verticalAlign=middle;whiteSpace=wrap;rounded=0;fontColor=#4D9900;container=0;" parent="1" vertex="1">
          <mxGeometry x="-337" y="515" width="27.5" height="26" as="geometry" />
        </mxCell>
        <mxCell id="TNHeq-oCC6hLfHn_DJO0-112" value="" style="rounded=0;whiteSpace=wrap;html=1;rotation=90;container=0;" parent="1" vertex="1">
          <mxGeometry x="-272.5" y="508" width="30" height="40" as="geometry" />
        </mxCell>
        <mxCell id="TNHeq-oCC6hLfHn_DJO0-113" value="$$k, 1$$" style="text;html=1;align=center;verticalAlign=middle;whiteSpace=wrap;rounded=0;fontColor=#4D9900;container=0;" parent="1" vertex="1">
          <mxGeometry x="-270" y="514" width="25" height="29" as="geometry" />
        </mxCell>
        <mxCell id="TNHeq-oCC6hLfHn_DJO0-114" value="" style="rounded=0;whiteSpace=wrap;html=1;rotation=90;container=0;" parent="1" vertex="1">
          <mxGeometry x="-126" y="508" width="30" height="40" as="geometry" />
        </mxCell>
        <mxCell id="TNHeq-oCC6hLfHn_DJO0-115" value="$$k, n$$" style="text;html=1;align=center;verticalAlign=middle;whiteSpace=wrap;rounded=0;fontColor=#4D9900;container=0;" parent="1" vertex="1">
          <mxGeometry x="-123.5" y="514" width="25" height="29" as="geometry" />
        </mxCell>
        <UserObject label="$$\dots$$" placeholders="1" name="Variable" id="TNHeq-oCC6hLfHn_DJO0-116">
          <mxCell style="text;html=1;strokeColor=none;fillColor=none;align=center;verticalAlign=middle;whiteSpace=wrap;overflow=hidden;rotation=0;fontSize=13;strokeWidth=1;fontStyle=0;container=0;" parent="1" vertex="1">
            <mxGeometry x="-302" y="462.75" width="23" height="28.5" as="geometry" />
          </mxCell>
        </UserObject>
        <mxCell id="TNHeq-oCC6hLfHn_DJO0-128" value="" style="rounded=0;whiteSpace=wrap;html=1;rotation=90;container=0;" parent="1" vertex="1">
          <mxGeometry x="-233" y="468" width="30" height="40" as="geometry" />
        </mxCell>
        <mxCell id="TNHeq-oCC6hLfHn_DJO0-129" value="$$1, 2$$" style="text;html=1;align=center;verticalAlign=middle;whiteSpace=wrap;rounded=0;fontColor=#007FFF;container=0;" parent="1" vertex="1">
          <mxGeometry x="-232.5" y="475" width="27.5" height="26" as="geometry" />
        </mxCell>
        <mxCell id="TNHeq-oCC6hLfHn_DJO0-132" value="" style="rounded=0;whiteSpace=wrap;html=1;rotation=90;container=0;" parent="1" vertex="1">
          <mxGeometry x="-232.5" y="508" width="30" height="40" as="geometry" />
        </mxCell>
        <mxCell id="TNHeq-oCC6hLfHn_DJO0-133" value="$$1, 2$$" style="text;html=1;align=center;verticalAlign=middle;whiteSpace=wrap;rounded=0;fontColor=#4D9900;container=0;" parent="1" vertex="1">
          <mxGeometry x="-232" y="515" width="27.5" height="26" as="geometry" />
        </mxCell>
        <mxCell id="TNHeq-oCC6hLfHn_DJO0-199" value="(b) Column-major" style="text;html=1;align=center;verticalAlign=middle;whiteSpace=wrap;rounded=0;container=0;fontSize=13;" parent="1" vertex="1">
          <mxGeometry x="-313.5" y="543" width="143.5" height="30" as="geometry" />
        </mxCell>
        <mxCell id="TNHeq-oCC6hLfHn_DJO0-73" value="" style="endArrow=none;html=1;strokeWidth=2;rounded=0;entryX=0;entryY=1;entryDx=0;entryDy=0;exitX=0.01;exitY=-0.001;exitDx=0;exitDy=0;exitPerimeter=0;jumpStyle=none;startArrow=block;startFill=1;fontColor=#D0D0D0;strokeColor=#666666;" parent="1" source="TNHeq-oCC6hLfHn_DJO0-208" target="TNHeq-oCC6hLfHn_DJO0-72" edge="1">
          <mxGeometry width="50" height="50" relative="1" as="geometry">
            <mxPoint x="-760" y="450" as="sourcePoint" />
            <mxPoint x="-577" y="376" as="targetPoint" />
          </mxGeometry>
        </mxCell>
        <mxCell id="TNHeq-oCC6hLfHn_DJO0-212" value="" style="endArrow=none;html=1;strokeWidth=2;rounded=0;entryX=1;entryY=1;entryDx=0;entryDy=0;exitX=0.987;exitY=-0.006;exitDx=0;exitDy=0;exitPerimeter=0;jumpStyle=none;startArrow=block;startFill=1;fontColor=#D0D0D0;strokeColor=#666666;" parent="1" source="TNHeq-oCC6hLfHn_DJO0-208" target="TNHeq-oCC6hLfHn_DJO0-72" edge="1">
          <mxGeometry width="50" height="50" relative="1" as="geometry">
            <mxPoint x="-747" y="466" as="sourcePoint" />
            <mxPoint x="-550" y="436" as="targetPoint" />
          </mxGeometry>
        </mxCell>
        <mxCell id="TNHeq-oCC6hLfHn_DJO0-214" value="" style="rounded=0;whiteSpace=wrap;html=1;rotation=90;container=0;" parent="1" vertex="1">
          <mxGeometry x="-477.5" y="467" width="30" height="40" as="geometry" />
        </mxCell>
        <mxCell id="TNHeq-oCC6hLfHn_DJO0-215" value="$$2, n$$" style="text;html=1;align=center;verticalAlign=middle;whiteSpace=wrap;rounded=0;fontColor=#007FFF;container=0;" parent="1" vertex="1">
          <mxGeometry x="-475" y="473" width="25" height="29" as="geometry" />
        </mxCell>
        <UserObject label="$$\dots$$" placeholders="1" name="Variable" id="TNHeq-oCC6hLfHn_DJO0-216">
          <mxCell style="text;html=1;strokeColor=none;fillColor=none;align=center;verticalAlign=middle;whiteSpace=wrap;overflow=hidden;rotation=0;fontSize=13;strokeWidth=1;fontStyle=0;container=0;" parent="1" vertex="1">
            <mxGeometry x="-445.5" y="461" width="33.5" height="38" as="geometry" />
          </mxCell>
        </UserObject>
        <mxCell id="TNHeq-oCC6hLfHn_DJO0-217" value="" style="rounded=0;whiteSpace=wrap;html=1;rotation=90;container=0;" parent="1" vertex="1">
          <mxGeometry x="-477.5" y="507.5" width="30" height="40" as="geometry" />
        </mxCell>
        <mxCell id="TNHeq-oCC6hLfHn_DJO0-218" value="$$2, n$$" style="text;html=1;align=center;verticalAlign=middle;whiteSpace=wrap;rounded=0;fontColor=#4D9900;container=0;" parent="1" vertex="1">
          <mxGeometry x="-475" y="513.5" width="25" height="29" as="geometry" />
        </mxCell>
        <UserObject label="$$\dots$$" placeholders="1" name="Variable" id="TNHeq-oCC6hLfHn_DJO0-219">
          <mxCell style="text;html=1;strokeColor=none;fillColor=none;align=center;verticalAlign=middle;whiteSpace=wrap;overflow=hidden;rotation=0;fontSize=13;strokeWidth=1;fontStyle=0;container=0;" parent="1" vertex="1">
            <mxGeometry x="-528" y="499.5" width="64.5" height="48" as="geometry" />
          </mxCell>
        </UserObject>
        <mxCell id="TNHeq-oCC6hLfHn_DJO0-220" value="" style="rounded=0;whiteSpace=wrap;html=1;rotation=90;container=0;" parent="1" vertex="1">
          <mxGeometry x="-193.5" y="468" width="30" height="40" as="geometry" />
        </mxCell>
        <mxCell id="TNHeq-oCC6hLfHn_DJO0-221" value="$$2, 2$$" style="text;html=1;align=center;verticalAlign=middle;whiteSpace=wrap;rounded=0;fontColor=#007FFF;container=0;" parent="1" vertex="1">
          <mxGeometry x="-193" y="475" width="27.5" height="26" as="geometry" />
        </mxCell>
        <mxCell id="TNHeq-oCC6hLfHn_DJO0-222" value="" style="rounded=0;whiteSpace=wrap;html=1;rotation=90;container=0;" parent="1" vertex="1">
          <mxGeometry x="-193" y="508" width="30" height="40" as="geometry" />
        </mxCell>
        <mxCell id="TNHeq-oCC6hLfHn_DJO0-223" value="$$2, 2$$" style="text;html=1;align=center;verticalAlign=middle;whiteSpace=wrap;rounded=0;fontColor=#4D9900;container=0;" parent="1" vertex="1">
          <mxGeometry x="-192.5" y="515" width="27.5" height="26" as="geometry" />
        </mxCell>
        <UserObject label="$$\dots$$" placeholders="1" name="Variable" id="TNHeq-oCC6hLfHn_DJO0-224">
          <mxCell style="text;html=1;strokeColor=none;fillColor=none;align=center;verticalAlign=middle;whiteSpace=wrap;overflow=hidden;rotation=0;fontSize=13;strokeWidth=1;fontStyle=0;container=0;" parent="1" vertex="1">
            <mxGeometry x="-162" y="461.5" width="33.5" height="38" as="geometry" />
          </mxCell>
        </UserObject>
        <UserObject label="$$\dots$$" placeholders="1" name="Variable" id="TNHeq-oCC6hLfHn_DJO0-225">
          <mxCell style="text;html=1;strokeColor=none;fillColor=none;align=center;verticalAlign=middle;whiteSpace=wrap;overflow=hidden;rotation=0;fontSize=13;strokeWidth=1;fontStyle=0;container=0;" parent="1" vertex="1">
            <mxGeometry x="-94.25" y="461.5" width="33.5" height="38" as="geometry" />
          </mxCell>
        </UserObject>
        <UserObject label="$$\dots$$" placeholders="1" name="Variable" id="TNHeq-oCC6hLfHn_DJO0-226">
          <mxCell style="text;html=1;strokeColor=none;fillColor=none;align=center;verticalAlign=middle;whiteSpace=wrap;overflow=hidden;rotation=0;fontSize=13;strokeWidth=1;fontStyle=0;container=0;" parent="1" vertex="1">
            <mxGeometry x="-302" y="503" width="23" height="28.5" as="geometry" />
          </mxCell>
        </UserObject>
        <UserObject label="$$\dots$$" placeholders="1" name="Variable" id="TNHeq-oCC6hLfHn_DJO0-231">
          <mxCell style="text;html=1;strokeColor=none;fillColor=none;align=center;verticalAlign=middle;whiteSpace=wrap;overflow=hidden;rotation=0;fontSize=13;strokeWidth=1;fontStyle=0;container=0;" parent="1" vertex="1">
            <mxGeometry x="-161.62" y="500.52" width="33.5" height="38" as="geometry" />
          </mxCell>
        </UserObject>
        <UserObject label="$$\dots$$" placeholders="1" name="Variable" id="TNHeq-oCC6hLfHn_DJO0-232">
          <mxCell style="text;html=1;strokeColor=none;fillColor=none;align=center;verticalAlign=middle;whiteSpace=wrap;overflow=hidden;rotation=0;fontSize=13;strokeWidth=1;fontStyle=0;container=0;" parent="1" vertex="1">
            <mxGeometry x="-93.87" y="500.52" width="33.5" height="38" as="geometry" />
          </mxCell>
        </UserObject>
        <mxCell id="YreFevuXHfeOpBi0n9mo-1" value="" style="endArrow=classicThin;html=1;rounded=0;endFill=1;" parent="1" edge="1">
          <mxGeometry width="50" height="50" relative="1" as="geometry">
            <mxPoint x="-545.71" y="250" as="sourcePoint" />
            <mxPoint x="-546" y="310" as="targetPoint" />
          </mxGeometry>
        </mxCell>
        <mxCell id="YreFevuXHfeOpBi0n9mo-4" value="$$i$$" style="text;html=1;align=center;verticalAlign=middle;whiteSpace=wrap;rounded=0;fontSize=14;" parent="1" vertex="1">
          <mxGeometry x="-551" y="232" width="12" height="15.52" as="geometry" />
        </mxCell>
        <mxCell id="YreFevuXHfeOpBi0n9mo-6" value="" style="endArrow=classicThin;html=1;rounded=0;endFill=1;" parent="1" edge="1">
          <mxGeometry width="50" height="50" relative="1" as="geometry">
            <mxPoint x="-511.5" y="216.4" as="sourcePoint" />
            <mxPoint x="-433" y="216" as="targetPoint" />
          </mxGeometry>
        </mxCell>
        <mxCell id="YreFevuXHfeOpBi0n9mo-7" value="$$j$$" style="text;html=1;align=center;verticalAlign=middle;whiteSpace=wrap;rounded=0;fontSize=12;" parent="1" vertex="1">
          <mxGeometry x="-528" y="207" width="12" height="15.52" as="geometry" />
        </mxCell>
        <UserObject label="X" placeholders="1" name="Variable" id="YreFevuXHfeOpBi0n9mo-9">
          <mxCell style="text;html=1;strokeColor=none;fillColor=none;align=center;verticalAlign=middle;whiteSpace=wrap;overflow=hidden;rotation=0;fontSize=14;fontColor=#007fff;" parent="1" vertex="1">
            <mxGeometry x="-494" y="384.96000000000004" width="36" height="36.04" as="geometry" />
          </mxCell>
        </UserObject>
        <UserObject label="Z" placeholders="1" name="Variable" id="YreFevuXHfeOpBi0n9mo-10">
          <mxCell style="text;html=1;strokeColor=none;fillColor=none;align=center;verticalAlign=middle;whiteSpace=wrap;overflow=hidden;rotation=0;fontSize=14;fontColor=#4d9900;" parent="1" vertex="1">
            <mxGeometry x="-366" y="381.97" width="19" height="42.02" as="geometry" />
          </mxCell>
        </UserObject>
        <UserObject label="S" placeholders="1" name="Variable" id="YreFevuXHfeOpBi0n9mo-11">
          <mxCell style="text;html=1;strokeColor=none;fillColor=none;align=center;verticalAlign=middle;whiteSpace=wrap;overflow=hidden;rotation=0;fontSize=14;fontColor=#ff8000;" parent="1" vertex="1">
            <mxGeometry x="-292.75" y="381.47999999999996" width="22.5" height="43" as="geometry" />
          </mxCell>
        </UserObject>
        <mxCell id="YreFevuXHfeOpBi0n9mo-12" value="" style="shape=curlyBracket;whiteSpace=wrap;html=1;rounded=1;labelPosition=left;verticalLabelPosition=middle;align=right;verticalAlign=middle;rotation=-90;" parent="1" vertex="1">
          <mxGeometry x="-481.5" y="332.5" width="11" height="112.97" as="geometry" />
        </mxCell>
        <mxCell id="YreFevuXHfeOpBi0n9mo-13" value="" style="shape=curlyBracket;whiteSpace=wrap;html=1;rounded=1;labelPosition=left;verticalLabelPosition=middle;align=right;verticalAlign=middle;rotation=-90;" parent="1" vertex="1">
          <mxGeometry x="-362" y="332.5" width="11" height="112.97" as="geometry" />
        </mxCell>
        <mxCell id="YreFevuXHfeOpBi0n9mo-14" value="" style="shape=curlyBracket;whiteSpace=wrap;html=1;rounded=1;labelPosition=left;verticalLabelPosition=middle;align=right;verticalAlign=middle;rotation=-89;" parent="1" vertex="1">
          <mxGeometry x="-286.5" y="376.52" width="11" height="25.97" as="geometry" />
        </mxCell>
        <mxCell id="YreFevuXHfeOpBi0n9mo-16" value="&lt;div style=&quot;font-size: 12px;&quot;&gt;&lt;span style=&quot;background-color: initial; font-size: 12px;&quot;&gt;&amp;nbsp; \(n\): &lt;/span&gt;&lt;span style=&quot;background-color: initial; font-size: 12px;&quot;&gt;number of qubits&lt;/span&gt;&lt;/div&gt;&lt;div style=&quot;font-size: 12px;&quot;&gt;&lt;span style=&quot;background-color: initial; font-size: 12px;&quot;&gt;&lt;br style=&quot;font-size: 12px;&quot;&gt;&lt;/span&gt;&lt;/div&gt;&lt;div style=&quot;font-size: 12px;&quot;&gt;&lt;span style=&quot;font-size: 12px;&quot;&gt;&amp;nbsp; \(k\): &lt;/span&gt;number of words per column&lt;/div&gt;&lt;div style=&quot;font-size: 12px;&quot;&gt;&lt;br style=&quot;font-size: 12px;&quot;&gt;&lt;/div&gt;&lt;div style=&quot;font-size: 12px;&quot;&gt;&lt;span style=&quot;font-size: 12px;&quot;&gt;&amp;nbsp; \(i,j\): word index per matrix&lt;/span&gt;&lt;br style=&quot;font-size: 12px;&quot;&gt;&lt;/div&gt;" style="text;html=1;align=left;verticalAlign=middle;whiteSpace=wrap;rounded=1;fontSize=12;strokeColor=default;arcSize=7;fontStyle=0" parent="1" vertex="1">
          <mxGeometry x="-753.5" y="249.75" width="182.5" height="95.5" as="geometry" />
        </mxCell>
        <mxCell id="yog0IMstDH131vSfCbmn-1" value="" style="endArrow=none;html=1;rounded=0;entryX=0;entryY=1;entryDx=0;entryDy=0;exitX=1;exitY=1;exitDx=0;exitDy=0;strokeWidth=2;" parent="1" source="TNHeq-oCC6hLfHn_DJO0-122" target="TNHeq-oCC6hLfHn_DJO0-122" edge="1">
          <mxGeometry width="50" height="50" relative="1" as="geometry">
            <mxPoint x="-641.5" y="525.49" as="sourcePoint" />
            <mxPoint x="-591.5" y="475.49" as="targetPoint" />
          </mxGeometry>
        </mxCell>
        <mxCell id="yog0IMstDH131vSfCbmn-2" value="" style="endArrow=none;html=1;rounded=0;entryX=0;entryY=1;entryDx=0;entryDy=0;exitX=1;exitY=1;exitDx=0;exitDy=0;strokeWidth=2;" parent="1" source="TNHeq-oCC6hLfHn_DJO0-126" target="TNHeq-oCC6hLfHn_DJO0-126" edge="1">
          <mxGeometry width="50" height="50" relative="1" as="geometry">
            <mxPoint x="-589.14" y="543" as="sourcePoint" />
            <mxPoint x="-589.14" y="513" as="targetPoint" />
          </mxGeometry>
        </mxCell>
        <mxCell id="yog0IMstDH131vSfCbmn-3" value="" style="endArrow=none;html=1;rounded=0;entryX=0;entryY=1;entryDx=0;entryDy=0;exitX=1;exitY=1;exitDx=0;exitDy=0;strokeWidth=2;" parent="1" source="TNHeq-oCC6hLfHn_DJO0-158" target="TNHeq-oCC6hLfHn_DJO0-158" edge="1">
          <mxGeometry width="50" height="50" relative="1" as="geometry">
            <mxPoint x="-583.5" y="623.22" as="sourcePoint" />
            <mxPoint x="-583.5" y="593.22" as="targetPoint" />
          </mxGeometry>
        </mxCell>
        <mxCell id="yog0IMstDH131vSfCbmn-4" value="" style="endArrow=none;html=1;rounded=0;entryX=0;entryY=1;entryDx=0;entryDy=0;exitX=1;exitY=1;exitDx=0;exitDy=0;strokeWidth=2;" parent="1" edge="1">
          <mxGeometry width="50" height="50" relative="1" as="geometry">
            <mxPoint x="-237.89" y="502.5" as="sourcePoint" />
            <mxPoint x="-237.89" y="472.5" as="targetPoint" />
          </mxGeometry>
        </mxCell>
        <mxCell id="yog0IMstDH131vSfCbmn-6" value="" style="endArrow=none;html=1;rounded=0;entryX=0;entryY=1;entryDx=0;entryDy=0;exitX=1;exitY=1;exitDx=0;exitDy=0;strokeWidth=2;" parent="1" source="TNHeq-oCC6hLfHn_DJO0-132" target="TNHeq-oCC6hLfHn_DJO0-132" edge="1">
          <mxGeometry width="50" height="50" relative="1" as="geometry">
            <mxPoint x="-238" y="543" as="sourcePoint" />
            <mxPoint x="-238" y="513" as="targetPoint" />
          </mxGeometry>
        </mxCell>
        <mxCell id="yog0IMstDH131vSfCbmn-7" value="" style="endArrow=none;html=1;rounded=0;entryX=0;entryY=1;entryDx=0;entryDy=0;exitX=1;exitY=1;exitDx=0;exitDy=0;strokeWidth=2;" parent="1" edge="1">
          <mxGeometry width="50" height="50" relative="1" as="geometry">
            <mxPoint x="-302" y="620.73" as="sourcePoint" />
            <mxPoint x="-302" y="590.73" as="targetPoint" />
          </mxGeometry>
        </mxCell>
        <mxCell id="yog0IMstDH131vSfCbmn-8" value="" style="endArrow=none;html=1;rounded=0;entryX=0;entryY=1;entryDx=0;entryDy=0;exitX=1;exitY=1;exitDx=0;exitDy=0;strokeWidth=2;" parent="1" edge="1">
          <mxGeometry width="50" height="50" relative="1" as="geometry">
            <mxPoint x="-225.5" y="620.75" as="sourcePoint" />
            <mxPoint x="-225.5" y="590.75" as="targetPoint" />
          </mxGeometry>
        </mxCell>
        <mxCell id="oo8BW2PKy8Z7WvsdkLck-10" value="" style="endArrow=none;html=1;rounded=0;entryX=0;entryY=1;entryDx=0;entryDy=0;exitX=1;exitY=1;exitDx=0;exitDy=0;strokeWidth=2;" parent="1" edge="1">
          <mxGeometry width="50" height="50" relative="1" as="geometry">
            <mxPoint x="-197.5" y="620.75" as="sourcePoint" />
            <mxPoint x="-197.5" y="590.75" as="targetPoint" />
          </mxGeometry>
        </mxCell>
        <UserObject label="X" placeholders="1" name="Variable" id="LTQpbJbk2qChJVPFgxxw-1">
          <mxCell style="text;html=1;strokeColor=none;fillColor=none;align=center;verticalAlign=middle;whiteSpace=wrap;overflow=hidden;rotation=0;fontSize=14;fontColor=#007fff;" vertex="1" parent="1">
            <mxGeometry x="-408.75" y="469.98" width="36" height="36.04" as="geometry" />
          </mxCell>
        </UserObject>
        <UserObject label="Z" placeholders="1" name="Variable" id="LTQpbJbk2qChJVPFgxxw-2">
          <mxCell style="text;html=1;strokeColor=none;fillColor=none;align=center;verticalAlign=middle;whiteSpace=wrap;overflow=hidden;rotation=0;fontSize=14;fontColor=#4d9900;" vertex="1" parent="1">
            <mxGeometry x="-401.25" y="506.49" width="19" height="42.02" as="geometry" />
          </mxCell>
        </UserObject>
        <UserObject label="Z" placeholders="1" name="Variable" id="LTQpbJbk2qChJVPFgxxw-3">
          <mxCell style="text;html=1;strokeColor=none;fillColor=none;align=center;verticalAlign=middle;whiteSpace=wrap;overflow=hidden;rotation=0;fontSize=14;fontColor=#4d9900;" vertex="1" parent="1">
            <mxGeometry x="-750.5" y="506.49" width="19" height="42.02" as="geometry" />
          </mxCell>
        </UserObject>
        <UserObject label="X" placeholders="1" name="Variable" id="LTQpbJbk2qChJVPFgxxw-4">
          <mxCell style="text;html=1;strokeColor=none;fillColor=none;align=center;verticalAlign=middle;whiteSpace=wrap;overflow=hidden;rotation=0;fontSize=14;fontColor=#007fff;" vertex="1" parent="1">
            <mxGeometry x="-750.5" y="475" width="19" height="21.02" as="geometry" />
          </mxCell>
        </UserObject>
        <UserObject label="Z" placeholders="1" name="Variable" id="LTQpbJbk2qChJVPFgxxw-5">
          <mxCell style="text;html=1;strokeColor=none;fillColor=none;align=center;verticalAlign=middle;whiteSpace=wrap;overflow=hidden;rotation=0;fontSize=14;fontColor=#4d9900;" vertex="1" parent="1">
            <mxGeometry x="-750" y="592.25" width="20.5" height="23.51" as="geometry" />
          </mxCell>
        </UserObject>
        <UserObject label="X" placeholders="1" name="Variable" id="LTQpbJbk2qChJVPFgxxw-6">
          <mxCell style="text;html=1;strokeColor=none;fillColor=none;align=center;verticalAlign=middle;whiteSpace=wrap;overflow=hidden;rotation=0;fontSize=14;fontColor=#007fff;" vertex="1" parent="1">
            <mxGeometry x="-757.75" y="593.5" width="19" height="21.02" as="geometry" />
          </mxCell>
        </UserObject>
        <UserObject label="Z" placeholders="1" name="Variable" id="LTQpbJbk2qChJVPFgxxw-7">
          <mxCell style="text;html=1;strokeColor=none;fillColor=none;align=center;verticalAlign=middle;whiteSpace=wrap;overflow=hidden;rotation=0;fontSize=14;fontColor=#4d9900;" vertex="1" parent="1">
            <mxGeometry x="-401" y="592.99" width="20.5" height="23.51" as="geometry" />
          </mxCell>
        </UserObject>
        <UserObject label="X" placeholders="1" name="Variable" id="LTQpbJbk2qChJVPFgxxw-8">
          <mxCell style="text;html=1;strokeColor=none;fillColor=none;align=center;verticalAlign=middle;whiteSpace=wrap;overflow=hidden;rotation=0;fontSize=14;fontColor=#007fff;" vertex="1" parent="1">
            <mxGeometry x="-408.75" y="594.24" width="19.75" height="21.02" as="geometry" />
          </mxCell>
        </UserObject>
      </root>
    </mxGraphModel>
  </diagram>
</mxfile>
